<?xml version="1.0" encoding="UTF-8"?>
<svg width="14px" height="21px" viewBox="0 0 14 21" version="1.1" xmlns="http://www.w3.org/2000/svg" xmlns:xlink="http://www.w3.org/1999/xlink">
    <title>Group</title>
    <g id="Page-1" stroke="none" stroke-width="1" fill="none" fill-rule="evenodd">
        <g id="Artboard" transform="translate(-169.000000, -105.000000)" fill="#2D3945" fill-rule="nonzero">
            <g id="Group" transform="translate(169.750000, 105.250000)">
                <g id="Base/Icons/UI/caret-down" transform="translate(0.000000, 13.521108)">
                    <path d="M6.33746479,5.3943848 L0.89982276,0.14892863 L0.848722326,0.105885864 C0.632458855,-0.0493662407 0.341831604,-0.029867693 0.156483388,0.148959386 C-0.0521749043,0.350276418 -0.052159019,0.678827409 0.156518387,0.880125322 L5.69266862,6.22049977 L5.75445042,6.27476651 C5.9228732,6.40825427 6.12718067,6.47889184 6.33802817,6.47889184 C6.57986681,6.47889184 6.81207181,6.38600858 6.9836723,6.22022504 L12.5195379,0.880125324 L12.5642116,0.830775363 C12.7281792,0.618243109 12.7074446,0.33022109 12.519573,0.148959386 L12.4603252,0.0996136028 C12.2522309,-0.0493568538 11.9616019,-0.0298844685 11.7762367,0.148925621 L6.33746479,5.3943848 Z" id="Icon-Color"></path>
                </g>
                <g id="Base/Icons/UI/caret-down-Copy" transform="translate(6.338572, 3.239446) rotate(-180.000000) translate(-6.338572, -3.239446) translate(0.001087, 0.000000)">
                    <path d="M6.33746479,5.3943848 L0.89982276,0.14892863 L0.848722326,0.105885864 C0.632458855,-0.0493662407 0.341831604,-0.029867693 0.156483388,0.148959386 C-0.0521749043,0.350276418 -0.052159019,0.678827409 0.156518387,0.880125322 L5.69266862,6.22049977 L5.75445042,6.27476651 C5.9228732,6.40825427 6.12718067,6.47889184 6.33802817,6.47889184 C6.57986681,6.47889184 6.81207181,6.38600858 6.9836723,6.22022504 L12.5195379,0.880125324 L12.5642116,0.830775363 C12.7281792,0.618243109 12.7074446,0.33022109 12.519573,0.148959386 L12.4603252,0.0996136028 C12.2522309,-0.0493568538 11.9616019,-0.0298844685 11.7762367,0.148925621 L6.33746479,5.3943848 Z" id="Icon-Color"></path>
                </g>
            </g>
        </g>
    </g>
</svg>